<?xml version="1.0" encoding="UTF-8"?>
<svg xmlns="http://www.w3.org/2000/svg" width="1400" height="760" viewBox="0 0 1400 760"><rect width="100%" height="100%" fill="#ffffff"/><text x="90" y="24" font-family="system-ui, -apple-system, Segoe UI, Roboto, sans-serif" font-size="20" fill="#111">Media MK/EX su tutti i progetti</text><text x="90" y="46" font-family="system-ui, -apple-system, Segoe UI, Roboto, sans-serif" font-size="12" fill="#666">10 progetti · bucket: settimane relative all'inizio progetto · finestra robusta: prime 200 settimane</text><line x1="90" y1="40.00" x2="1370.00" y2="40.00" stroke="rgba(0,0,0,0.10)" stroke-width="1"/><text x="80" y="44.00" text-anchor="end" font-family="system-ui, -apple-system, Segoe UI, Roboto, sans-serif" font-size="12" fill="#666">24.20</text><line x1="90" y1="168.00" x2="1370.00" y2="168.00" stroke="rgba(0,0,0,0.10)" stroke-width="1"/><text x="80" y="172.00" text-anchor="end" font-family="system-ui, -apple-system, Segoe UI, Roboto, sans-serif" font-size="12" fill="#666">19.36</text><line x1="90" y1="296.00" x2="1370.00" y2="296.00" stroke="rgba(0,0,0,0.10)" stroke-width="1"/><text x="80" y="300.00" text-anchor="end" font-family="system-ui, -apple-system, Segoe UI, Roboto, sans-serif" font-size="12" fill="#666">14.52</text><line x1="90" y1="424.00" x2="1370.00" y2="424.00" stroke="rgba(0,0,0,0.10)" stroke-width="1"/><text x="80" y="428.00" text-anchor="end" font-family="system-ui, -apple-system, Segoe UI, Roboto, sans-serif" font-size="12" fill="#666">9.68</text><line x1="90" y1="552.00" x2="1370.00" y2="552.00" stroke="rgba(0,0,0,0.10)" stroke-width="1"/><text x="80" y="556.00" text-anchor="end" font-family="system-ui, -apple-system, Segoe UI, Roboto, sans-serif" font-size="12" fill="#666">4.84</text><line x1="90" y1="680.00" x2="1370.00" y2="680.00" stroke="rgba(0,0,0,0.10)" stroke-width="1"/><text x="80" y="684.00" text-anchor="end" font-family="system-ui, -apple-system, Segoe UI, Roboto, sans-serif" font-size="12" fill="#666">0.00</text><line x1="90.00" y1="40" x2="90.00" y2="680.00" stroke="rgba(0,0,0,0.06)" stroke-width="1"/><text x="90.00" y="702.00" text-anchor="middle" font-family="system-ui, -apple-system, Segoe UI, Roboto, sans-serif" font-size="12" fill="#666">W1</text><line x1="186.97" y1="40" x2="186.97" y2="680.00" stroke="rgba(0,0,0,0.06)" stroke-width="1"/><text x="186.97" y="702.00" text-anchor="middle" font-family="system-ui, -apple-system, Segoe UI, Roboto, sans-serif" font-size="12" fill="#666">W6</text><line x1="283.94" y1="40" x2="283.94" y2="680.00" stroke="rgba(0,0,0,0.06)" stroke-width="1"/><text x="283.94" y="702.00" text-anchor="middle" font-family="system-ui, -apple-system, Segoe UI, Roboto, sans-serif" font-size="12" fill="#666">W11</text><line x1="380.91" y1="40" x2="380.91" y2="680.00" stroke="rgba(0,0,0,0.06)" stroke-width="1"/><text x="380.91" y="702.00" text-anchor="middle" font-family="system-ui, -apple-system, Segoe UI, Roboto, sans-serif" font-size="12" fill="#666">W16</text><line x1="477.88" y1="40" x2="477.88" y2="680.00" stroke="rgba(0,0,0,0.06)" stroke-width="1"/><text x="477.88" y="702.00" text-anchor="middle" font-family="system-ui, -apple-system, Segoe UI, Roboto, sans-serif" font-size="12" fill="#666">W21</text><line x1="574.85" y1="40" x2="574.85" y2="680.00" stroke="rgba(0,0,0,0.06)" stroke-width="1"/><text x="574.85" y="702.00" text-anchor="middle" font-family="system-ui, -apple-system, Segoe UI, Roboto, sans-serif" font-size="12" fill="#666">W26</text><line x1="671.82" y1="40" x2="671.82" y2="680.00" stroke="rgba(0,0,0,0.06)" stroke-width="1"/><text x="671.82" y="702.00" text-anchor="middle" font-family="system-ui, -apple-system, Segoe UI, Roboto, sans-serif" font-size="12" fill="#666">W31</text><line x1="768.79" y1="40" x2="768.79" y2="680.00" stroke="rgba(0,0,0,0.06)" stroke-width="1"/><text x="768.79" y="702.00" text-anchor="middle" font-family="system-ui, -apple-system, Segoe UI, Roboto, sans-serif" font-size="12" fill="#666">W36</text><line x1="865.76" y1="40" x2="865.76" y2="680.00" stroke="rgba(0,0,0,0.06)" stroke-width="1"/><text x="865.76" y="702.00" text-anchor="middle" font-family="system-ui, -apple-system, Segoe UI, Roboto, sans-serif" font-size="12" fill="#666">W41</text><line x1="962.73" y1="40" x2="962.73" y2="680.00" stroke="rgba(0,0,0,0.06)" stroke-width="1"/><text x="962.73" y="702.00" text-anchor="middle" font-family="system-ui, -apple-system, Segoe UI, Roboto, sans-serif" font-size="12" fill="#666">W46</text><line x1="1059.70" y1="40" x2="1059.70" y2="680.00" stroke="rgba(0,0,0,0.06)" stroke-width="1"/><text x="1059.70" y="702.00" text-anchor="middle" font-family="system-ui, -apple-system, Segoe UI, Roboto, sans-serif" font-size="12" fill="#666">W51</text><line x1="1156.67" y1="40" x2="1156.67" y2="680.00" stroke="rgba(0,0,0,0.06)" stroke-width="1"/><text x="1156.67" y="702.00" text-anchor="middle" font-family="system-ui, -apple-system, Segoe UI, Roboto, sans-serif" font-size="12" fill="#666">W56</text><line x1="1253.64" y1="40" x2="1253.64" y2="680.00" stroke="rgba(0,0,0,0.06)" stroke-width="1"/><text x="1253.64" y="702.00" text-anchor="middle" font-family="system-ui, -apple-system, Segoe UI, Roboto, sans-serif" font-size="12" fill="#666">W61</text><line x1="1350.61" y1="40" x2="1350.61" y2="680.00" stroke="rgba(0,0,0,0.06)" stroke-width="1"/><text x="1350.61" y="702.00" text-anchor="middle" font-family="system-ui, -apple-system, Segoe UI, Roboto, sans-serif" font-size="12" fill="#666">W66</text><line x1="90" y1="680.00" x2="1370.00" y2="680.00" stroke="#333" stroke-width="1.2"/><line x1="90" y1="40" x2="90" y2="680.00" stroke="#333" stroke-width="1.2"/><path d="M 90.00 40.00 L 109.39 389.09 L 128.79 526.61 L 148.18 441.98 L 167.58 463.14 L 186.97 550.41 L 206.36 574.21 L 225.76 613.88 L 245.15 627.11 L 264.55 642.98 L 283.94 658.84 L 303.33 661.49 L 322.73 621.82 L 342.12 664.13 L 361.52 680.00 L 380.91 656.20 L 400.30 664.13 L 419.70 672.07 L 439.09 677.36 L 458.48 674.71 L 477.88 680.00 L 497.27 680.00 L 516.67 680.00 L 536.06 680.00 L 555.45 680.00 L 574.85 680.00 L 594.24 680.00 L 613.64 680.00 L 633.03 680.00 L 652.42 680.00 L 671.82 680.00 L 691.21 680.00 L 710.61 680.00 L 730.00 680.00 L 749.39 680.00 L 768.79 680.00 L 788.18 680.00 L 807.58 680.00 L 826.97 680.00 L 846.36 680.00 L 865.76 680.00 L 885.15 680.00 L 904.55 680.00 L 923.94 680.00 L 943.33 680.00 L 962.73 680.00 L 982.12 680.00 L 1001.52 680.00 L 1020.91 680.00 L 1040.30 680.00 L 1059.70 680.00 L 1079.09 680.00 L 1098.48 680.00 L 1117.88 680.00 L 1137.27 680.00 L 1156.67 680.00 L 1176.06 680.00 L 1195.45 680.00 L 1214.85 680.00 L 1234.24 680.00 L 1253.64 680.00 L 1273.03 680.00 L 1292.42 680.00 L 1311.82 680.00 L 1331.21 680.00 L 1350.61 680.00 L 1370.00 680.00" fill="none" stroke="#00bcd4" stroke-width="3" stroke-linecap="round" stroke-linejoin="round"/><path d="M 90.00 627.11 L 109.39 672.07 L 128.79 677.36 L 148.18 632.40 L 167.58 574.21 L 186.97 605.95 L 206.36 534.55 L 225.76 510.74 L 245.15 529.26 L 264.55 399.67 L 283.94 502.81 L 303.33 576.86 L 322.73 508.10 L 342.12 555.70 L 361.52 661.49 L 380.91 616.53 L 400.30 582.15 L 419.70 587.44 L 439.09 529.26 L 458.48 550.41 L 477.88 669.42 L 497.27 672.07 L 516.67 677.36 L 536.06 677.36 L 555.45 680.00 L 574.85 680.00 L 594.24 680.00 L 613.64 680.00 L 633.03 680.00 L 652.42 680.00 L 671.82 680.00 L 691.21 680.00 L 710.61 680.00 L 730.00 680.00 L 749.39 680.00 L 768.79 677.36 L 788.18 680.00 L 807.58 680.00 L 826.97 680.00 L 846.36 680.00 L 865.76 680.00 L 885.15 680.00 L 904.55 664.13 L 923.94 661.49 L 943.33 664.13 L 962.73 680.00 L 982.12 680.00 L 1001.52 680.00 L 1020.91 680.00 L 1040.30 680.00 L 1059.70 680.00 L 1079.09 677.36 L 1098.48 680.00 L 1117.88 680.00 L 1137.27 680.00 L 1156.67 680.00 L 1176.06 680.00 L 1195.45 680.00 L 1214.85 680.00 L 1234.24 680.00 L 1253.64 680.00 L 1273.03 680.00 L 1292.42 680.00 L 1311.82 680.00 L 1331.21 680.00 L 1350.61 680.00 L 1370.00 677.36" fill="none" stroke="#643719" stroke-width="3" stroke-linecap="round" stroke-linejoin="round"/><circle cx="90.00" cy="40.00" r="2.2" fill="#00bcd4"/><circle cx="90.00" cy="627.11" r="2.2" fill="#643719"/><circle cx="109.39" cy="389.09" r="2.2" fill="#00bcd4"/><circle cx="109.39" cy="672.07" r="2.2" fill="#643719"/><circle cx="128.79" cy="526.61" r="2.2" fill="#00bcd4"/><circle cx="128.79" cy="677.36" r="2.2" fill="#643719"/><circle cx="148.18" cy="441.98" r="2.2" fill="#00bcd4"/><circle cx="148.18" cy="632.40" r="2.2" fill="#643719"/><circle cx="167.58" cy="463.14" r="2.2" fill="#00bcd4"/><circle cx="167.58" cy="574.21" r="2.2" fill="#643719"/><circle cx="186.97" cy="550.41" r="2.2" fill="#00bcd4"/><circle cx="186.97" cy="605.95" r="2.2" fill="#643719"/><circle cx="206.36" cy="574.21" r="2.2" fill="#00bcd4"/><circle cx="206.36" cy="534.55" r="2.2" fill="#643719"/><circle cx="225.76" cy="613.88" r="2.2" fill="#00bcd4"/><circle cx="225.76" cy="510.74" r="2.2" fill="#643719"/><circle cx="245.15" cy="627.11" r="2.2" fill="#00bcd4"/><circle cx="245.15" cy="529.26" r="2.2" fill="#643719"/><circle cx="264.55" cy="642.98" r="2.2" fill="#00bcd4"/><circle cx="264.55" cy="399.67" r="2.2" fill="#643719"/><circle cx="283.94" cy="658.84" r="2.2" fill="#00bcd4"/><circle cx="283.94" cy="502.81" r="2.2" fill="#643719"/><circle cx="303.33" cy="661.49" r="2.2" fill="#00bcd4"/><circle cx="303.33" cy="576.86" r="2.2" fill="#643719"/><circle cx="322.73" cy="621.82" r="2.2" fill="#00bcd4"/><circle cx="322.73" cy="508.10" r="2.2" fill="#643719"/><circle cx="342.12" cy="664.13" r="2.2" fill="#00bcd4"/><circle cx="342.12" cy="555.70" r="2.2" fill="#643719"/><circle cx="361.52" cy="680.00" r="2.2" fill="#00bcd4"/><circle cx="361.52" cy="661.49" r="2.2" fill="#643719"/><circle cx="380.91" cy="656.20" r="2.2" fill="#00bcd4"/><circle cx="380.91" cy="616.53" r="2.2" fill="#643719"/><circle cx="400.30" cy="664.13" r="2.2" fill="#00bcd4"/><circle cx="400.30" cy="582.15" r="2.2" fill="#643719"/><circle cx="419.70" cy="672.07" r="2.2" fill="#00bcd4"/><circle cx="419.70" cy="587.44" r="2.2" fill="#643719"/><circle cx="439.09" cy="677.36" r="2.2" fill="#00bcd4"/><circle cx="439.09" cy="529.26" r="2.2" fill="#643719"/><circle cx="458.48" cy="674.71" r="2.2" fill="#00bcd4"/><circle cx="458.48" cy="550.41" r="2.2" fill="#643719"/><circle cx="477.88" cy="680.00" r="2.2" fill="#00bcd4"/><circle cx="477.88" cy="669.42" r="2.2" fill="#643719"/><circle cx="497.27" cy="680.00" r="2.2" fill="#00bcd4"/><circle cx="497.27" cy="672.07" r="2.2" fill="#643719"/><circle cx="516.67" cy="680.00" r="2.2" fill="#00bcd4"/><circle cx="516.67" cy="677.36" r="2.2" fill="#643719"/><circle cx="536.06" cy="680.00" r="2.2" fill="#00bcd4"/><circle cx="536.06" cy="677.36" r="2.2" fill="#643719"/><circle cx="555.45" cy="680.00" r="2.2" fill="#00bcd4"/><circle cx="555.45" cy="680.00" r="2.2" fill="#643719"/><circle cx="574.85" cy="680.00" r="2.2" fill="#00bcd4"/><circle cx="574.85" cy="680.00" r="2.2" fill="#643719"/><circle cx="594.24" cy="680.00" r="2.2" fill="#00bcd4"/><circle cx="594.24" cy="680.00" r="2.2" fill="#643719"/><circle cx="613.64" cy="680.00" r="2.2" fill="#00bcd4"/><circle cx="613.64" cy="680.00" r="2.2" fill="#643719"/><circle cx="633.03" cy="680.00" r="2.2" fill="#00bcd4"/><circle cx="633.03" cy="680.00" r="2.2" fill="#643719"/><circle cx="652.42" cy="680.00" r="2.2" fill="#00bcd4"/><circle cx="652.42" cy="680.00" r="2.2" fill="#643719"/><circle cx="671.82" cy="680.00" r="2.2" fill="#00bcd4"/><circle cx="671.82" cy="680.00" r="2.2" fill="#643719"/><circle cx="691.21" cy="680.00" r="2.2" fill="#00bcd4"/><circle cx="691.21" cy="680.00" r="2.2" fill="#643719"/><circle cx="710.61" cy="680.00" r="2.2" fill="#00bcd4"/><circle cx="710.61" cy="680.00" r="2.2" fill="#643719"/><circle cx="730.00" cy="680.00" r="2.2" fill="#00bcd4"/><circle cx="730.00" cy="680.00" r="2.2" fill="#643719"/><circle cx="749.39" cy="680.00" r="2.2" fill="#00bcd4"/><circle cx="749.39" cy="680.00" r="2.2" fill="#643719"/><circle cx="768.79" cy="680.00" r="2.2" fill="#00bcd4"/><circle cx="768.79" cy="677.36" r="2.2" fill="#643719"/><circle cx="788.18" cy="680.00" r="2.2" fill="#00bcd4"/><circle cx="788.18" cy="680.00" r="2.2" fill="#643719"/><circle cx="807.58" cy="680.00" r="2.2" fill="#00bcd4"/><circle cx="807.58" cy="680.00" r="2.2" fill="#643719"/><circle cx="826.97" cy="680.00" r="2.2" fill="#00bcd4"/><circle cx="826.97" cy="680.00" r="2.2" fill="#643719"/><circle cx="846.36" cy="680.00" r="2.2" fill="#00bcd4"/><circle cx="846.36" cy="680.00" r="2.2" fill="#643719"/><circle cx="865.76" cy="680.00" r="2.2" fill="#00bcd4"/><circle cx="865.76" cy="680.00" r="2.2" fill="#643719"/><circle cx="885.15" cy="680.00" r="2.2" fill="#00bcd4"/><circle cx="885.15" cy="680.00" r="2.2" fill="#643719"/><circle cx="904.55" cy="680.00" r="2.2" fill="#00bcd4"/><circle cx="904.55" cy="664.13" r="2.2" fill="#643719"/><circle cx="923.94" cy="680.00" r="2.2" fill="#00bcd4"/><circle cx="923.94" cy="661.49" r="2.2" fill="#643719"/><circle cx="943.33" cy="680.00" r="2.2" fill="#00bcd4"/><circle cx="943.33" cy="664.13" r="2.2" fill="#643719"/><circle cx="962.73" cy="680.00" r="2.2" fill="#00bcd4"/><circle cx="962.73" cy="680.00" r="2.2" fill="#643719"/><circle cx="982.12" cy="680.00" r="2.2" fill="#00bcd4"/><circle cx="982.12" cy="680.00" r="2.2" fill="#643719"/><circle cx="1001.52" cy="680.00" r="2.2" fill="#00bcd4"/><circle cx="1001.52" cy="680.00" r="2.2" fill="#643719"/><circle cx="1020.91" cy="680.00" r="2.2" fill="#00bcd4"/><circle cx="1020.91" cy="680.00" r="2.2" fill="#643719"/><circle cx="1040.30" cy="680.00" r="2.2" fill="#00bcd4"/><circle cx="1040.30" cy="680.00" r="2.2" fill="#643719"/><circle cx="1059.70" cy="680.00" r="2.2" fill="#00bcd4"/><circle cx="1059.70" cy="680.00" r="2.2" fill="#643719"/><circle cx="1079.09" cy="680.00" r="2.2" fill="#00bcd4"/><circle cx="1079.09" cy="677.36" r="2.2" fill="#643719"/><circle cx="1098.48" cy="680.00" r="2.2" fill="#00bcd4"/><circle cx="1098.48" cy="680.00" r="2.2" fill="#643719"/><circle cx="1117.88" cy="680.00" r="2.2" fill="#00bcd4"/><circle cx="1117.88" cy="680.00" r="2.2" fill="#643719"/><circle cx="1137.27" cy="680.00" r="2.2" fill="#00bcd4"/><circle cx="1137.27" cy="680.00" r="2.2" fill="#643719"/><circle cx="1156.67" cy="680.00" r="2.2" fill="#00bcd4"/><circle cx="1156.67" cy="680.00" r="2.2" fill="#643719"/><circle cx="1176.06" cy="680.00" r="2.2" fill="#00bcd4"/><circle cx="1176.06" cy="680.00" r="2.2" fill="#643719"/><circle cx="1195.45" cy="680.00" r="2.2" fill="#00bcd4"/><circle cx="1195.45" cy="680.00" r="2.2" fill="#643719"/><circle cx="1214.85" cy="680.00" r="2.2" fill="#00bcd4"/><circle cx="1214.85" cy="680.00" r="2.2" fill="#643719"/><circle cx="1234.24" cy="680.00" r="2.2" fill="#00bcd4"/><circle cx="1234.24" cy="680.00" r="2.2" fill="#643719"/><circle cx="1253.64" cy="680.00" r="2.2" fill="#00bcd4"/><circle cx="1253.64" cy="680.00" r="2.2" fill="#643719"/><circle cx="1273.03" cy="680.00" r="2.2" fill="#00bcd4"/><circle cx="1273.03" cy="680.00" r="2.2" fill="#643719"/><circle cx="1292.42" cy="680.00" r="2.2" fill="#00bcd4"/><circle cx="1292.42" cy="680.00" r="2.2" fill="#643719"/><circle cx="1311.82" cy="680.00" r="2.2" fill="#00bcd4"/><circle cx="1311.82" cy="680.00" r="2.2" fill="#643719"/><circle cx="1331.21" cy="680.00" r="2.2" fill="#00bcd4"/><circle cx="1331.21" cy="680.00" r="2.2" fill="#643719"/><circle cx="1350.61" cy="680.00" r="2.2" fill="#00bcd4"/><circle cx="1350.61" cy="680.00" r="2.2" fill="#643719"/><circle cx="1370.00" cy="680.00" r="2.2" fill="#00bcd4"/><circle cx="1370.00" cy="677.36" r="2.2" fill="#643719"/><line x1="90" y1="732" x2="114" y2="732" stroke="#00bcd4" stroke-width="3" stroke-linecap="round"/><text x="120" y="736" font-family="system-ui, -apple-system, Segoe UI, Roboto, sans-serif" font-size="13" fill="#333">EX media (Exploring)</text><line x1="330" y1="732" x2="354" y2="732" stroke="#643719" stroke-width="3" stroke-linecap="round"/><text x="360" y="736" font-family="system-ui, -apple-system, Segoe UI, Roboto, sans-serif" font-size="13" fill="#333">MK media (Making)</text></svg>
